<?xml version="1.0" encoding="UTF-8"?>
<svg version="1.1" xmlns="http://www.w3.org/2000/svg" width="512" height="512">
<path d="M0 0 C1.28531974 -0.00654048 1.28531974 -0.00654048 2.59660554 -0.0132131 C5.49360758 -0.02423929 8.39014061 -0.01371319 11.28713989 -0.00342751 C13.37474246 -0.00688116 15.46234321 -0.01164374 17.54994011 -0.01760924 C23.30661575 -0.03018906 29.06314312 -0.02391724 34.81981945 -0.01465058 C41.02030149 -0.00788889 47.22075724 -0.01832696 53.42123413 -0.02659035 C64.87262462 -0.03918713 76.32394865 -0.03805637 87.77533883 -0.02985594 C98.3531505 -0.02231801 108.93094474 -0.02033509 119.50875854 -0.02392387 C120.20960842 -0.02415303 120.9104583 -0.02438218 121.63254605 -0.02461828 C124.47731373 -0.02555225 127.32208141 -0.02650745 130.16684907 -0.02749758 C156.86898621 -0.03668065 183.57109305 -0.02834457 210.27322552 -0.01220688 C234.01176659 0.00203061 257.75025939 0.00075675 281.48880005 -0.01358986 C308.14117995 -0.02964352 334.79353307 -0.03602947 361.44591713 -0.02675307 C364.28558985 -0.02579087 367.12526257 -0.02485236 369.9649353 -0.02392387 C370.66416768 -0.02368664 371.36340005 -0.02344941 372.08382128 -0.02320499 C382.65662671 -0.01978834 393.22941282 -0.02379127 403.80221558 -0.03136253 C415.8204332 -0.03992581 427.83858131 -0.037537 439.85679674 -0.0215203 C445.9937797 -0.01361228 452.13066446 -0.01058891 458.26764679 -0.02046776 C463.87823537 -0.02936295 469.48863407 -0.02456781 475.09920526 -0.0085351 C477.13616568 -0.00516523 479.17314193 -0.00693035 481.21009231 -0.01416247 C483.96485886 -0.02319796 486.71896276 -0.01401774 489.47369385 0 C490.27675406 -0.0070235 491.07981427 -0.014047 491.90720963 -0.02128333 C497.1536585 0.03259975 497.1536585 0.03259975 499.7295242 1.55608171 C501.13294552 4.0937492 501.114183 5.99924003 501.11716366 8.8981142 C501.1256036 10.05317429 501.13404354 11.20823439 501.14273924 12.3982963 C501.13672919 13.67316717 501.13071915 14.94803804 501.12452698 16.26154137 C501.12869758 17.62501641 501.13417358 18.98848799 501.14084679 20.35195309 C501.15535778 24.10739888 501.15103908 27.86262627 501.14367998 31.61808431 C501.13896413 35.66535489 501.15144451 39.71257712 501.16169739 43.75983238 C501.17892569 51.69438775 501.17971656 59.62886406 501.17448448 67.56343328 C501.17044672 74.01540341 501.17188167 80.46735014 501.17723274 86.91931915 C501.17798116 87.83686794 501.17872959 88.75441673 501.17950069 89.69977002 C501.18103216 91.56374065 501.1825705 93.42771128 501.18411566 95.29168189 C501.19785688 112.7892783 501.19239308 130.28683005 501.18093044 147.78442544 C501.17101055 163.7808255 501.18391431 179.77710968 501.20786463 195.77349185 C501.23227261 212.19951708 501.24185845 228.62548838 501.23521191 245.05153137 C501.23172163 254.2728592 501.23393833 263.49409804 501.25146294 272.71541214 C501.26620674 280.57113196 501.26679267 288.42670026 501.24939203 296.28241717 C501.24089487 300.28797157 501.23870043 304.29325558 501.25404358 308.2987957 C501.26794092 311.97256987 501.26306352 315.64584333 501.24380434 319.31958891 C501.23829752 321.26408702 501.25227438 323.20861095 501.26715845 325.1530599 C501.14013447 340.40648571 495.66327827 352.32814976 485.33343506 363.36852074 C484.80761923 363.93387224 484.28180341 364.49922375 483.74005377 365.08170712 C477.85264638 371.37698714 471.78291476 377.48723942 465.69143677 383.58406639 C464.4347865 384.84536117 463.1783277 386.10684674 461.92204285 387.36850548 C458.55069815 390.75280443 455.17617071 394.13391079 451.80058241 397.51397657 C449.68535591 399.6321568 447.57070806 401.7509131 445.45622635 403.86983681 C438.82063093 410.51905177 432.18307776 417.16630298 425.54261148 423.81065357 C417.91102954 431.44672661 410.28605654 439.08931953 402.66668737 446.73757827 C396.74809004 452.67782848 390.82370501 458.61226596 384.89493906 464.5423671 C381.36553993 468.07281008 377.83857119 471.60559908 374.3176384 475.14448738 C371.00976313 478.46890977 367.69471641 481.7860134 364.37418938 485.09779739 C363.16310828 486.30811214 361.95454886 487.52095673 360.7488308 488.73661423 C352.57348173 496.97535212 344.37137654 504.97267947 333.36184692 509.25252342 C332.38473755 509.6418203 331.40762817 510.03111717 330.40090942 510.43221092 C326.1392065 511.94442809 322.6089595 512.50332133 318.0680685 512.50895119 C316.90546708 512.51279233 315.74286565 512.51663348 314.54503387 512.52059102 C313.26693676 512.51972454 311.98883965 512.51885806 310.67201233 512.51796532 C309.30126361 512.52054918 307.93051565 512.5235624 306.55976874 512.52696872 C302.78927168 512.53503898 299.01879366 512.5368283 295.24828899 512.53756618 C291.18350073 512.5394166 287.11872236 512.5469637 283.05393982 512.5537014 C274.16583032 512.56728361 265.27772534 512.57330876 256.38960719 512.57771206 C250.84297957 512.58047365 245.29635369 512.58471076 239.74972725 512.58921623 C224.40031385 512.60140683 209.05090186 512.61170781 193.70148373 512.61509132 C192.22795608 512.61542067 192.22795608 512.61542067 190.72466019 512.61575668 C189.73993624 512.61597495 188.75521228 512.61619323 187.74064821 512.61641812 C185.74515911 512.61686159 183.74967001 512.61730816 181.75418091 512.6177578 C180.76434574 512.61797923 179.77451057 512.61820066 178.7546804 512.6184288 C162.70055528 512.62238043 146.64647544 512.6398465 130.59236782 512.66311732 C114.12003412 512.6868023 97.64772319 512.6992918 81.17537218 512.70045924 C71.92249717 512.70137741 62.66968122 512.70716552 53.41682243 512.72527885 C45.54150241 512.74064111 37.66625973 512.74582319 29.79092758 512.73754075 C25.7703158 512.73362095 21.74985994 512.73462832 17.72926712 512.7485981 C14.05238772 512.76125736 10.37578269 512.76021056 6.6989041 512.74800739 C4.73089745 512.74509915 2.76288641 512.75704608 0.79491657 512.76942945 C-0.36507711 512.7628396 -1.52507079 512.75624976 -2.7202158 512.74946022 C-3.72544554 512.75005731 -4.73067529 512.7506544 -5.76636654 512.75126958 C-8.26315308 512.37752342 -8.26315308 512.37752342 -10.08581686 511.11286324 C-11.53047817 508.98349845 -11.63986707 507.80211974 -11.64346981 505.2401495 C-11.65612972 503.97041738 -11.65612972 503.97041738 -11.66904539 502.67503411 C-11.66303534 501.74489162 -11.6570253 500.81474914 -11.65083313 499.85642052 C-11.65621867 498.86845983 -11.66160421 497.88049915 -11.66715294 496.86260027 C-11.68151324 493.53680185 -11.67430886 490.21139694 -11.66720581 486.88558006 C-11.67290515 484.50741822 -11.6798677 482.12925911 -11.68800354 479.75110435 C-11.70412742 473.95284723 -11.7060258 468.15471447 -11.70079064 462.35643966 C-11.69675278 457.64448195 -11.6981879 452.93255629 -11.70353889 448.22060013 C-11.70428732 447.55052407 -11.70503574 446.88044801 -11.70580684 446.19006662 C-11.70733828 444.82890014 -11.70887663 443.46773366 -11.71042181 442.1065672 C-11.724157 429.33521722 -11.71870208 416.56392847 -11.7072366 403.79257988 C-11.69730363 392.10393214 -11.71024409 380.41544267 -11.73417079 368.72681934 C-11.75854273 356.73047691 -11.76817434 344.73420825 -11.76151806 332.73784155 C-11.75802152 326.00056795 -11.76028641 319.26341611 -11.77776909 312.52616119 C-11.79318765 306.19207678 -11.78933915 299.85829554 -11.77046394 293.52422333 C-11.76676395 291.19575625 -11.76992725 288.86726696 -11.78034973 286.53882027 C-11.79346469 283.36739602 -11.78209607 280.19698955 -11.76435852 277.02560997 C-11.77396353 276.09769821 -11.78356853 275.16978644 -11.7934646 274.21375614 C-11.7219341 268.0252038 -11.7219341 268.0252038 -9.41932774 264.77451801 C-7.26315308 263.37752342 -7.26315308 263.37752342 -4.26315308 263.37752342 C-4.26315308 258.75752342 -4.26315308 254.13752342 -4.26315308 249.37752342 C-5.91315308 248.71752342 -7.56315308 248.05752342 -9.26315308 247.37752342 C-11.63065239 245.01002411 -11.5138315 244.57044246 -11.51762867 241.36040401 C-11.52637696 240.09273342 -11.52637696 240.09273342 -11.53530198 238.79945332 C-11.53152266 237.86571587 -11.52774334 236.93197843 -11.52384949 235.96994591 C-11.52767503 234.98213408 -11.53150058 233.99432226 -11.53544205 232.97657675 C-11.54581353 229.64541013 -11.54177206 226.31441454 -11.53781128 222.98323631 C-11.54215546 220.60360109 -11.54733761 218.22396727 -11.55329895 215.84433556 C-11.56533476 210.03894548 -11.56783652 204.23360923 -11.56549869 198.42820818 C-11.56371814 193.71097982 -11.5654595 188.99376552 -11.56972313 184.27653885 C-11.57031832 183.60603858 -11.57091351 182.93553831 -11.57152673 182.24471984 C-11.57273844 180.8827461 -11.57395257 179.52077236 -11.57516911 178.15879863 C-11.58605436 165.37605052 -11.58387753 152.59332877 -11.57778426 139.81057917 C-11.57261441 128.1082869 -11.58387056 116.40607786 -11.60288248 104.70380206 C-11.62223956 92.6973346 -11.63052062 80.69090656 -11.62675923 68.68442339 C-11.62484391 61.93991988 -11.62736675 55.19548721 -11.64147377 48.4509964 C-11.65400099 42.11041064 -11.65215656 35.76999206 -11.63906288 29.42940903 C-11.63668638 27.09729647 -11.63946985 24.76517234 -11.647686 22.43307304 C-11.65806462 19.25921306 -11.65012451 16.08592333 -11.63737488 12.91208458 C-11.64474916 11.98057786 -11.65212345 11.04907113 -11.6597212 10.08933693 C-11.65251465 9.24161545 -11.64530811 8.39389398 -11.63788319 7.52048397 C-11.6379382 6.78756872 -11.63799322 6.05465346 -11.6380499 5.29952866 C-11.26315308 3.37752342 -11.26315308 3.37752342 -10.25617951 1.6421836 C-7.0608433 -0.38539335 -3.66688872 -0.03207031 0 0 Z " fill="#F6BEBE" transform="translate(11.263153076171875,-0.37752342224121094)"/>
<path d="M0 0 C1.28531974 -0.00654048 1.28531974 -0.00654048 2.59660554 -0.0132131 C5.49360758 -0.02423929 8.39014061 -0.01371319 11.28713989 -0.00342751 C13.37474246 -0.00688116 15.46234321 -0.01164374 17.54994011 -0.01760924 C23.30661575 -0.03018906 29.06314312 -0.02391724 34.81981945 -0.01465058 C41.02030149 -0.00788889 47.22075724 -0.01832696 53.42123413 -0.02659035 C64.87262462 -0.03918713 76.32394865 -0.03805637 87.77533883 -0.02985594 C98.3531505 -0.02231801 108.93094474 -0.02033509 119.50875854 -0.02392387 C120.20960842 -0.02415303 120.9104583 -0.02438218 121.63254605 -0.02461828 C124.47731373 -0.02555225 127.32208141 -0.02650745 130.16684907 -0.02749758 C156.86898621 -0.03668065 183.57109305 -0.02834457 210.27322552 -0.01220688 C234.01176659 0.00203061 257.75025939 0.00075675 281.48880005 -0.01358986 C308.14117995 -0.02964352 334.79353307 -0.03602947 361.44591713 -0.02675307 C364.28558985 -0.02579087 367.12526257 -0.02485236 369.9649353 -0.02392387 C370.66416768 -0.02368664 371.36340005 -0.02344941 372.08382128 -0.02320499 C382.65662671 -0.01978834 393.22941282 -0.02379127 403.80221558 -0.03136253 C415.8204332 -0.03992581 427.83858131 -0.037537 439.85679674 -0.0215203 C445.9937797 -0.01361228 452.13066446 -0.01058891 458.26764679 -0.02046776 C463.87823537 -0.02936295 469.48863407 -0.02456781 475.09920526 -0.0085351 C477.13616568 -0.00516523 479.17314193 -0.00693035 481.21009231 -0.01416247 C483.96485886 -0.02319796 486.71896276 -0.01401774 489.47369385 0 C490.27675406 -0.0070235 491.07981427 -0.014047 491.90720963 -0.02128333 C497.1536585 0.03259975 497.1536585 0.03259975 499.7295242 1.55608171 C501.13294552 4.0937492 501.114183 5.99924003 501.11716366 8.8981142 C501.1256036 10.05317429 501.13404354 11.20823439 501.14273924 12.3982963 C501.13672919 13.67316717 501.13071915 14.94803804 501.12452698 16.26154137 C501.12869758 17.62501641 501.13417358 18.98848799 501.14084679 20.35195309 C501.15535778 24.10739888 501.15103908 27.86262627 501.14367998 31.61808431 C501.13896413 35.66535489 501.15144451 39.71257712 501.16169739 43.75983238 C501.17892569 51.69438775 501.17971656 59.62886406 501.17448448 67.56343328 C501.17044672 74.01540341 501.17188167 80.46735014 501.17723274 86.91931915 C501.17798116 87.83686794 501.17872959 88.75441673 501.17950069 89.69977002 C501.18103216 91.56374065 501.1825705 93.42771128 501.18411566 95.29168189 C501.19785688 112.7892783 501.19239308 130.28683005 501.18093044 147.78442544 C501.17101055 163.7808255 501.18391431 179.77710968 501.20786463 195.77349185 C501.23227261 212.19951708 501.24185845 228.62548838 501.23521191 245.05153137 C501.23172163 254.2728592 501.23393833 263.49409804 501.25146294 272.71541214 C501.26620674 280.57113196 501.26679267 288.42670026 501.24939203 296.28241717 C501.24089487 300.28797157 501.23870043 304.29325558 501.25404358 308.2987957 C501.26794092 311.97256987 501.26306352 315.64584333 501.24380434 319.31958891 C501.23829752 321.26408702 501.25227438 323.20861095 501.26715845 325.1530599 C501.14013447 340.40648571 495.66327827 352.32814976 485.33343506 363.36852074 C484.80761923 363.93387224 484.28180341 364.49922375 483.74005377 365.08170712 C477.85264638 371.37698714 471.78291476 377.48723942 465.69143677 383.58406639 C464.4347865 384.84536117 463.1783277 386.10684674 461.92204285 387.36850548 C458.55069815 390.75280443 455.17617071 394.13391079 451.80058241 397.51397657 C449.68535591 399.6321568 447.57070806 401.7509131 445.45622635 403.86983681 C438.82063093 410.51905177 432.18307776 417.16630298 425.54261148 423.81065357 C417.91102954 431.44672661 410.28605654 439.08931953 402.66668737 446.73757827 C396.74809004 452.67782848 390.82370501 458.61226596 384.89493906 464.5423671 C381.36553993 468.07281008 377.83857119 471.60559908 374.3176384 475.14448738 C371.00976313 478.46890977 367.69471641 481.7860134 364.37418938 485.09779739 C363.16310828 486.30811214 361.95454886 487.52095673 360.7488308 488.73661423 C352.57348173 496.97535212 344.37137654 504.97267947 333.36184692 509.25252342 C332.38473755 509.6418203 331.40762817 510.03111717 330.40090942 510.43221092 C326.1392065 511.94442809 322.6089595 512.50332133 318.0680685 512.50895119 C316.90546708 512.51279233 315.74286565 512.51663348 314.54503387 512.52059102 C313.26693676 512.51972454 311.98883965 512.51885806 310.67201233 512.51796532 C309.30126361 512.52054918 307.93051565 512.5235624 306.55976874 512.52696872 C302.78927168 512.53503898 299.01879366 512.5368283 295.24828899 512.53756618 C291.18350073 512.5394166 287.11872236 512.5469637 283.05393982 512.5537014 C274.16583032 512.56728361 265.27772534 512.57330876 256.38960719 512.57771206 C250.84297957 512.58047365 245.29635369 512.58471076 239.74972725 512.58921623 C224.40031385 512.60140683 209.05090186 512.61170781 193.70148373 512.61509132 C192.22795608 512.61542067 192.22795608 512.61542067 190.72466019 512.61575668 C189.73993624 512.61597495 188.75521228 512.61619323 187.74064821 512.61641812 C185.74515911 512.61686159 183.74967001 512.61730816 181.75418091 512.6177578 C180.76434574 512.61797923 179.77451057 512.61820066 178.7546804 512.6184288 C162.70055528 512.62238043 146.64647544 512.6398465 130.59236782 512.66311732 C114.12003412 512.6868023 97.64772319 512.6992918 81.17537218 512.70045924 C71.92249717 512.70137741 62.66968122 512.70716552 53.41682243 512.72527885 C45.54150241 512.74064111 37.66625973 512.74582319 29.79092758 512.73754075 C25.7703158 512.73362095 21.74985994 512.73462832 17.72926712 512.7485981 C14.05238772 512.76125736 10.37578269 512.76021056 6.6989041 512.74800739 C4.73089745 512.74509915 2.76288641 512.75704608 0.79491657 512.76942945 C-0.36507711 512.7628396 -1.52507079 512.75624976 -2.7202158 512.74946022 C-3.72544554 512.75005731 -4.73067529 512.7506544 -5.76636654 512.75126958 C-8.26315308 512.37752342 -8.26315308 512.37752342 -10.08581686 511.11286324 C-11.53047817 508.98349845 -11.63986707 507.80211974 -11.64346981 505.2401495 C-11.65612972 503.97041738 -11.65612972 503.97041738 -11.66904539 502.67503411 C-11.66303534 501.74489162 -11.6570253 500.81474914 -11.65083313 499.85642052 C-11.65621867 498.86845983 -11.66160421 497.88049915 -11.66715294 496.86260027 C-11.68151324 493.53680185 -11.67430886 490.21139694 -11.66720581 486.88558006 C-11.67290515 484.50741822 -11.6798677 482.12925911 -11.68800354 479.75110435 C-11.70412742 473.95284723 -11.7060258 468.15471447 -11.70079064 462.35643966 C-11.69675278 457.64448195 -11.6981879 452.93255629 -11.70353889 448.22060013 C-11.70428732 447.55052407 -11.70503574 446.88044801 -11.70580684 446.19006662 C-11.70733828 444.82890014 -11.70887663 443.46773366 -11.71042181 442.1065672 C-11.724157 429.33521722 -11.71870208 416.56392847 -11.7072366 403.79257988 C-11.69730363 392.10393214 -11.71024409 380.41544267 -11.73417079 368.72681934 C-11.75854273 356.73047691 -11.76817434 344.73420825 -11.76151806 332.73784155 C-11.75802152 326.00056795 -11.76028641 319.26341611 -11.77776909 312.52616119 C-11.79318765 306.19207678 -11.78933915 299.85829554 -11.77046394 293.52422333 C-11.76676395 291.19575625 -11.76992725 288.86726696 -11.78034973 286.53882027 C-11.79346469 283.36739602 -11.78209607 280.19698955 -11.76435852 277.02560997 C-11.77396353 276.09769821 -11.78356853 275.16978644 -11.7934646 274.21375614 C-11.72205372 268.03555305 -11.72205372 268.03555305 -9.45057774 264.77842426 C-7.26315308 263.37752342 -7.26315308 263.37752342 -3.76315308 263.31502342 C0.51208313 264.61286298 1.45062592 265.5756088 3.73684692 269.37752342 C4.30470819 272.46714478 4.25971335 275.50052954 4.21786499 278.63455772 C4.22128269 279.56987979 4.22470039 280.50520185 4.22822165 281.468867 C4.23481283 284.60450192 4.21280358 287.73928176 4.19094849 290.87483788 C4.18982028 293.12185203 4.19045334 295.36886767 4.19271851 297.61588097 C4.19386761 303.71882487 4.17032609 309.82145523 4.14242268 315.92432618 C4.11744201 322.30113978 4.11506965 328.67796032 4.11032104 335.05481529 C4.09929541 345.758882 4.07429927 356.46282467 4.03860474 367.16683006 C4.00188002 378.19123827 3.97357054 389.21561521 3.95657349 400.24007225 C3.95552259 400.91979362 3.9544717 401.599515 3.95338896 402.29983399 C3.94816875 405.70984887 3.94311393 409.11986397 3.93814135 412.52987921 C3.89668484 440.81250655 3.8259436 469.09500881 3.73684692 497.37752342 C43.93358455 497.34151753 84.13024271 497.28456802 124.32690798 497.19960247 C129.07447521 497.18958523 133.82204278 497.17974107 138.5696106 497.17000389 C139.51475006 497.16806252 140.45988953 497.16612114 141.43366959 497.16412094 C156.72926973 497.13311541 172.02485487 497.11612433 187.3204805 497.1043292 C203.01983864 497.09191015 218.71911818 497.0643917 234.41842669 497.02291036 C244.1026571 496.99779657 253.78675711 496.9844046 263.47102054 496.98609385 C270.11546034 496.98612365 276.7597675 496.97146239 283.40415559 496.94535914 C287.2353804 496.93073812 291.06633322 496.92248869 294.8975811 496.93172073 C299.05847877 496.9415771 303.21866094 496.92044268 307.37950134 496.89650536 C308.5808907 496.90426577 309.78228005 496.91202619 311.02007514 496.92002177 C322.66267608 496.80167063 332.3418934 493.67429036 340.73684692 485.37752342 C347.80413439 476.9184288 350.20267766 468.12089634 350.08987427 457.25545311 C350.09311455 455.80249336 350.09311455 455.80249336 350.09642029 454.32018089 C350.09949041 452.2331825 350.09595162 450.14616576 350.08640671 448.05918694 C350.07259976 444.75520897 350.07914495 441.45182688 350.09124756 438.14784813 C350.12212465 428.76017268 350.11727482 419.37263999 350.09719849 409.9849453 C350.08629214 404.22967999 350.09944036 398.47486615 350.12709427 392.71966362 C350.13253652 390.53000482 350.1284667 388.3403009 350.1146965 386.15067863 C350.09568347 383.09395401 350.10702395 380.03871403 350.12503052 376.98201561 C350.11169174 376.07905754 350.09835297 375.17609947 350.08460999 374.24577904 C350.13922519 370.08040955 350.40677578 367.89868306 352.67678833 364.31448936 C356.95697352 361.60520368 360.33752419 361.69918957 365.30960083 361.78157616 C366.2680188 361.77751762 367.22643677 361.77345909 368.21389771 361.76927757 C370.29222245 361.76376343 372.37060252 361.76976014 374.44887161 361.78593826 C377.74597401 361.81136834 381.0418265 361.80655478 384.33898926 361.79404259 C391.34674556 361.77328569 398.35411609 361.79295787 405.36184692 361.81502342 C413.46459843 361.83616926 421.56694581 361.84057923 429.66968918 361.81452179 C432.90416912 361.81117841 436.1378658 361.83232994 439.37225342 361.85492516 C453.59512875 361.87640365 465.12210706 360.86811428 475.73684692 350.37752342 C483.68800877 340.86048726 485.18427958 331.38506542 485.13557434 319.26068687 C485.14221603 317.96163918 485.14885773 316.66259148 485.15570068 315.3241787 C485.17366729 311.73164849 485.1731483 308.13932547 485.16956387 304.54676096 C485.16897255 300.60820534 485.18578153 296.66971601 485.20035267 292.73119259 C485.22602603 285.09271024 485.23642736 277.45428387 485.24143525 269.81576306 C485.24789308 260.97663969 485.27344328 252.13763879 485.29898071 243.29854393 C485.35697869 219.97073843 485.38908107 196.64287436 485.42434692 173.31502342 C485.52747192 121.19564842 485.63059692 69.07627342 485.73684692 15.37752342 C326.67684692 15.37752342 167.61684692 15.37752342 3.73684692 15.37752342 C3.73684692 90.61752342 3.73684692 165.85752342 3.73684692 243.37752342 C-0.26315308 248.37752342 -0.26315308 248.37752342 -3.20065308 249.44002342 C-6.26315308 249.37752342 -6.26315308 249.37752342 -8.91571808 247.97662258 C-12.40533321 244.11289227 -11.95266351 240.77382092 -11.88461304 235.72943687 C-11.89100186 234.7399162 -11.89739068 233.75039553 -11.9039731 232.73088938 C-11.91926885 229.40558022 -11.8987307 226.08145375 -11.87838745 222.75618553 C-11.88188723 220.37625292 -11.88754418 217.99632263 -11.89520264 215.61639977 C-11.90799626 209.81784399 -11.89748941 204.01967106 -11.87608939 198.22114771 C-11.85209121 191.47118757 -11.85379299 184.72130782 -11.8563953 177.9713145 C-11.86008623 165.92980554 -11.83925274 153.88846158 -11.80514526 141.84700584 C-11.772046 130.15718478 -11.7578881 118.46753689 -11.76412964 106.77766991 C-11.77089037 94.05277975 -11.76844303 81.32796215 -11.74877024 68.60308272 C-11.74721101 67.59422198 -11.74721101 67.59422198 -11.74562028 66.56498023 C-11.74352936 65.21408256 -11.74141838 63.86318493 -11.73928711 62.51228733 C-11.7323858 57.8048074 -11.73172313 53.0973498 -11.73316956 48.38986588 C-11.73404622 42.05743039 -11.71989109 35.7252029 -11.69394302 29.39282227 C-11.68675941 27.06394394 -11.68470808 24.73504353 -11.68806076 22.40615654 C-11.69175423 19.23675147 -11.67710225 16.06796067 -11.65756226 12.89862633 C-11.66289018 11.96848384 -11.66821811 11.03834136 -11.67370749 10.08001274 C-11.66465085 9.23352466 -11.65559421 8.38703658 -11.64626312 7.51489735 C-11.64469192 6.78306624 -11.64312072 6.05123513 -11.6415019 5.29722732 C-11.26315308 3.37752342 -11.26315308 3.37752342 -10.25565577 1.64253277 C-7.0608542 -0.38579766 -3.6667565 -0.03206915 0 0 Z " fill="#000000" transform="translate(11.263153076171875,-0.37752342224121094)"/>
<path d="M0 0 C7.59 0 15.18 0 23 0 C23.09128641 40.19666477 23.1620573 80.39331323 23.20426132 120.59006106 C23.20926403 125.33762877 23.21444133 130.08519627 23.21972656 134.83276367 C23.2207758 135.77790314 23.22182505 136.72304261 23.22290608 137.69682267 C23.24030261 152.99245829 23.27183616 168.28803367 23.30861118 183.58363358 C23.34604152 199.28294522 23.36824028 214.98222534 23.37635398 230.68157977 C23.38183741 240.36585196 23.39914491 250.04995385 23.43166587 259.73417362 C23.45283959 266.37857081 23.45919358 273.0228802 23.45400551 279.66730867 C23.45144817 283.49856728 23.45531759 287.32952866 23.4768219 291.16073418 C23.50000489 295.32156706 23.49192443 299.48177134 23.48101807 303.64265442 C23.49266943 304.84404377 23.5043208 306.04543313 23.51632524 307.28322822 C23.42866502 319.67839285 19.75242913 329.15445992 11 338 C2.12223958 345.46109652 -6.58553975 347.57605687 -18 347 C-16.66126947 343.95504429 -15.252393 342.16423179 -12.75 340 C-4.71531791 332.20015204 -0.99724212 321.08082871 -0.73828697 310.08052826 C-0.72260071 307.7341919 -0.71776363 305.38776761 -0.7215271 303.04138184 C-0.7157347 301.74414389 -0.7099423 300.44690595 -0.70397437 299.11035776 C-0.68823075 295.52551923 -0.68474681 291.9407592 -0.68332577 288.35589027 C-0.67962183 284.48412487 -0.66446142 280.61240202 -0.65071106 276.74066162 C-0.62846556 270.03786162 -0.613436 263.33507682 -0.60334396 256.63224792 C-0.5887422 246.94115548 -0.56320117 237.250116 -0.53501268 227.55905467 C-0.4895719 211.83495674 -0.45294587 196.11085116 -0.421875 180.38671875 C-0.39167834 165.1145697 -0.35732294 149.84243931 -0.31738281 134.5703125 C-0.31492126 133.62852369 -0.31245972 132.68673487 -0.30992357 131.716407 C-0.29754876 126.99160538 -0.28509226 122.26680398 -0.27259517 117.54200268 C-0.16906801 78.36136087 -0.07999842 39.18069645 0 0 Z " fill="#E8AFAE" transform="translate(474,15)"/>
<path d="M0 0 C27.39 0 54.78 0 83 0 C76.24974271 7.87530017 76.24974271 7.87530017 73.39994812 10.72703552 C72.75366959 11.37613388 72.10739105 12.02523224 71.44152832 12.69400024 C70.75401489 13.37948944 70.06650146 14.06497864 69.3581543 14.77124023 C68.61761307 15.51353378 67.87707184 16.25582733 67.11408997 17.02061462 C64.6866278 19.4524481 62.2555623 21.88064134 59.82421875 24.30859375 C58.13110477 26.0023817 56.43813923 27.69631803 54.74531555 29.39039612 C51.20903047 32.9281514 47.67095283 36.46410145 44.1315918 39.9987793 C39.58385479 44.54079318 35.04065672 49.08731664 30.4987669 53.63517666 C27.01002511 57.12752006 23.51891989 60.617493 20.02707863 64.10673714 C18.34971417 65.78343257 16.67309758 67.4608765 14.99722862 69.1390667 C12.66551288 71.47330521 10.33064497 73.8043428 7.99487305 76.13452148 C6.94842117 77.1840097 6.94842117 77.1840097 5.88082886 78.25469971 C4.93255974 79.19873909 4.93255974 79.19873909 3.96513367 80.16184998 C3.13753052 80.98888758 3.13753052 80.98888758 2.29320812 81.83263302 C1 83 1 83 0 83 C0 55.61 0 28.22 0 0 Z " fill="#C89493" transform="translate(377,377)"/>
<path d="M0 0 C2.31 0 4.62 0 7 0 C7.33 9.24 7.66 18.48 8 28 C9.91683594 25.97875 11.83367187 23.9575 13.80859375 21.875 C15.68972317 19.92359482 17.57865542 17.98006539 19.46850586 16.03710938 C20.77341071 14.68706274 22.07011006 13.32903288 23.3581543 11.96289062 C25.21621217 9.9951134 27.10233834 8.05837084 28.99609375 6.125 C29.84511513 5.20630127 29.84511513 5.20630127 30.71128845 4.26904297 C34.04666469 0.92961723 36.13082755 -0.36965944 40.93774414 -0.3828125 C42.29435753 -0.2857049 43.65041992 -0.16871096 45 0 C40.47008204 5.43733055 35.65705784 10.46458931 30.625 15.4375 C29.88894531 16.16904297 29.15289062 16.90058594 28.39453125 17.65429688 C26.59863926 19.43852723 24.80044015 21.22036124 23 23 C24.79013588 26.71659173 27.02209907 29.98023641 29.4375 33.3125 C29.86981934 33.91336426 30.30213867 34.51422852 30.74755859 35.13330078 C35.78660732 42.12167047 40.88991309 49.0634942 46 56 C48.59522746 53.40477254 49.41823082 50.51047679 50.625 47.125 C52.97039186 40.70169064 55.43778315 34.3398834 58 28 C60.82963356 20.98504984 63.56706993 13.94420734 66.18554688 6.84765625 C67.91047127 2.17905746 67.91047127 2.17905746 69 0 C71.64 0 74.28 0 77 0 C91.90386281 35.61790339 91.90386281 35.61790339 96.9375 48.125 C97.26041016 48.92131836 97.58332031 49.71763672 97.91601562 50.53808594 C100 55.75749805 100 55.75749805 100 58 C97.36 58 94.72 58 92 58 C89.69 52.39 87.38 46.78 85 41 C77.08 41 69.16 41 61 41 C60.38125 43.0625 59.7625 45.125 59.125 47.25 C57.99640115 51.01199615 56.89499785 54.55144536 55 58 C48.96183331 59.23227892 42.90113286 60.24628399 37 58 C31.50122259 53.25941579 27.98012068 46.69333174 24.43505859 40.44482422 C23.10439149 38.17784558 21.67526986 36.08432469 20.11328125 33.97265625 C18 31 18 31 18 29 C16.70756532 30.1241176 15.41607925 31.24932592 14.125 32.375 C13.40570313 33.00148438 12.68640625 33.62796875 11.9453125 34.2734375 C8.96370917 36.66493483 8.96370917 36.66493483 7.68115234 40.06298828 C7.64973145 40.89040527 7.61831055 41.71782227 7.5859375 42.5703125 C7.54726563 43.46621094 7.50859375 44.36210937 7.46875 45.28515625 C7.4378125 46.22230469 7.406875 47.15945313 7.375 48.125 C7.33632813 49.06988281 7.29765625 50.01476562 7.2578125 50.98828125 C7.16338654 53.32532375 7.07781606 55.66235501 7 58 C4.69 58 2.38 58 0 58 C0 38.86 0 19.72 0 0 Z " fill="#060404" transform="translate(297,227)"/>
<path d="M0 0 C2.64 0 5.28 0 8 0 C22.90386281 35.61790339 22.90386281 35.61790339 27.9375 48.125 C28.26041016 48.92131836 28.58332031 49.71763672 28.91601562 50.53808594 C31 55.75749805 31 55.75749805 31 58 C28.36 58 25.72 58 23 58 C20.69 52.39 18.38 46.78 16 41 C8.08 41 0.16 41 -8 41 C-8.61875 43.0625 -9.2375 45.125 -9.875 47.25 C-11.00359885 51.01199615 -12.10500215 54.55144536 -14 58 C-16.64 58 -19.28 58 -22 58 C-19.89739254 50.21433195 -17.0275215 42.79230372 -13.98648071 35.33459473 C-12.63545363 32.02104096 -11.29839622 28.70186115 -9.9609375 25.3828125 C-9.70087418 24.73824097 -9.44081085 24.09366943 -9.17286682 23.42956543 C-6.66778232 17.20582017 -4.29889716 10.93858695 -1.98828125 4.640625 C-1 2 -1 2 0 0 Z " fill="#060404" transform="translate(217,227)"/>
<path d="M0 0 C2.64 0 5.28 0 8 0 C22.90386281 35.61790339 22.90386281 35.61790339 27.9375 48.125 C28.26041016 48.92131836 28.58332031 49.71763672 28.91601562 50.53808594 C31 55.75749805 31 55.75749805 31 58 C28.36 58 25.72 58 23 58 C20.69 52.39 18.38 46.78 16 41 C8.08 41 0.16 41 -8 41 C-8.61875 43.0625 -9.2375 45.125 -9.875 47.25 C-11.00359885 51.01199615 -12.10500215 54.55144536 -14 58 C-16.64 58 -19.28 58 -22 58 C-19.89739254 50.21433195 -17.0275215 42.79230372 -13.98648071 35.33459473 C-12.63545363 32.02104096 -11.29839622 28.70186115 -9.9609375 25.3828125 C-9.70087418 24.73824097 -9.44081085 24.09366943 -9.17286682 23.42956543 C-6.66778232 17.20582017 -4.29889716 10.93858695 -1.98828125 4.640625 C-1 2 -1 2 0 0 Z " fill="#060404" transform="translate(126,227)"/>
<path d="M0 0 C8 0 8 0 10.60131836 2.53173828 C11.37621112 3.6925988 12.12092178 4.8739818 12.83984375 6.0703125 C13.25110001 6.70299042 13.66235626 7.33566833 14.08607483 7.98751831 C15.39692912 10.01745178 16.66715023 12.06953202 17.9375 14.125 C18.78582626 15.4534773 19.63671819 16.78031989 20.49023438 18.10546875 C22.09931087 20.61288226 23.69273674 23.12876311 25.26928711 25.65673828 C29.13236969 31.80106007 33.0752733 37.89486957 37 44 C37.33 29.48 37.66 14.96 38 0 C40.31 0 42.62 0 45 0 C45 19.14 45 38.28 45 58 C37 58 37 58 34.93701172 56.22192383 C34.43959473 55.39200928 33.94217773 54.56209473 33.4296875 53.70703125 C32.84968994 52.77576416 32.26969238 51.84449707 31.67211914 50.88500977 C31.07906982 49.87108154 30.48602051 48.85715332 29.875 47.8125 C28.58096245 45.71259475 27.28535013 43.61365922 25.98828125 41.515625 C25.33424316 40.43861328 24.68020508 39.36160156 24.00634766 38.25195312 C20.82663716 33.09817558 17.44496964 28.08447921 14.0625 23.0625 C12.061875 20.071875 10.06125 17.08125 8 14 C7.67 28.52 7.34 43.04 7 58 C4.69 58 2.38 58 0 58 C0 38.86 0 19.72 0 0 Z " fill="#050404" transform="translate(404,227)"/>
<path d="M0 0 C2.31 0 4.62 0 7 0 C7.33 9.24 7.66 18.48 8 28 C9.91683594 25.97875 11.83367187 23.9575 13.80859375 21.875 C15.68972317 19.92359482 17.57865542 17.98006539 19.46850586 16.03710938 C20.77341071 14.68706274 22.07011006 13.32903288 23.3581543 11.96289062 C25.21621217 9.9951134 27.10233834 8.05837084 28.99609375 6.125 C29.84511513 5.20630127 29.84511513 5.20630127 30.71128845 4.26904297 C34.04666469 0.92961723 36.13082755 -0.36965944 40.93774414 -0.3828125 C42.29435753 -0.2857049 43.65041992 -0.16871096 45 0 C40.47008204 5.43733055 35.65705784 10.46458931 30.625 15.4375 C29.88894531 16.16904297 29.15289062 16.90058594 28.39453125 17.65429688 C26.59863926 19.43852723 24.80044015 21.22036124 23 23 C24.79017064 26.71666389 27.02252496 29.97989046 29.4375 33.3125 C29.86981934 33.91481445 30.30213867 34.51712891 30.74755859 35.13769531 C33.17270295 38.50705926 35.62744172 41.8529456 38.10546875 45.18359375 C38.60957275 45.86317139 39.11367676 46.54274902 39.63305664 47.24291992 C40.61610272 48.56539118 41.60347626 49.88465828 42.59545898 51.20043945 C46 55.7786204 46 55.7786204 46 58 C42.82644404 58.62250521 40.15927958 58.76347165 37 58 C33.91995933 55.25126934 31.90866729 51.93190373 29.75 48.4375 C29.16476562 47.54224609 28.57953125 46.64699219 27.9765625 45.72460938 C26.83181675 43.97284037 25.69922233 42.21305886 24.58007812 40.44482422 C23.14682786 38.2271839 21.64465474 36.09716581 20.078125 33.97265625 C18 31 18 31 18 29 C16.70756532 30.1241176 15.41607925 31.24932592 14.125 32.375 C13.40570313 33.00148438 12.68640625 33.62796875 11.9453125 34.2734375 C8.96370917 36.66493483 8.96370917 36.66493483 7.68115234 40.06298828 C7.64973145 40.89040527 7.61831055 41.71782227 7.5859375 42.5703125 C7.54726563 43.46621094 7.50859375 44.36210937 7.46875 45.28515625 C7.4378125 46.22230469 7.406875 47.15945313 7.375 48.125 C7.33632813 49.06988281 7.29765625 50.01476562 7.2578125 50.98828125 C7.16338654 53.32532375 7.07781606 55.66235501 7 58 C4.69 58 2.38 58 0 58 C0 38.86 0 19.72 0 0 Z " fill="#020101" transform="translate(297,227)"/>
<path d="M0 0 C6.06329472 0.10453956 11.30593266 1.70293352 16 5.5625 C22.1875 13.16428571 22.1875 13.16428571 22.1875 17.25 C19.8775 17.91 17.5675 18.57 15.1875 19.25 C14.5996875 17.88875 14.5996875 17.88875 14 16.5 C11.77951918 12.51844818 9.24889984 10.28069992 5.1875 8.25 C-1.03130209 7.72160505 -6.54621321 7.52506544 -11.8125 11.25 C-17.31118713 17.05416975 -18.1748087 22.37791509 -18.1875 30.0625 C-18.21199219 30.83142578 -18.23648438 31.60035156 -18.26171875 32.39257812 C-18.29078662 38.13348287 -17.0147633 42.45539282 -13.8125 47.25 C-8.69867193 52.11437304 -4.36864971 52.60338401 2.45703125 52.53125 C6.30285443 52.13511371 8.37120077 50.85507679 11.1875 48.25 C12.97719026 45.82327433 12.97719026 45.82327433 14.1875 43.25 C14.579375 42.486875 14.97125 41.72375 15.375 40.9375 C15.643125 40.380625 15.91125 39.82375 16.1875 39.25 C18.4975 39.58 20.8075 39.91 23.1875 40.25 C22.76448422 45.89021036 20.64399883 49.88978045 17.1875 54.25 C10.64043649 59.65844377 3.45145951 60.95456493 -4.8125 60.25 C-12.61426292 58.66320076 -17.91841619 55.09333466 -22.48828125 48.65234375 C-27.69545137 39.20570768 -27.93951609 27.98095086 -25.62109375 17.66796875 C-23.01950232 9.8883306 -16.91315165 4.93514833 -9.8125 1.25 C-6.45257133 0.29002038 -3.49120169 0.22893126 0 0 Z " fill="#050404" transform="translate(77.8125,225.75)"/>
<path d="M0 0 C14.85 0 29.7 0 45 0 C45 2.31 45 4.62 45 7 C38.73 7 32.46 7 26 7 C26 23.83 26 40.66 26 58 C23.69 58 21.38 58 19 58 C19 41.17 19 24.34 19 7 C12.73 7 6.46 7 0 7 C0 4.69 0 2.38 0 0 Z " fill="#000000" transform="translate(244,227)"/>
<path d="M0 0 C14.85 0 29.7 0 45 0 C45 2.31 45 4.62 45 7 C38.73 7 32.46 7 26 7 C26 23.83 26 40.66 26 58 C23.69 58 21.38 58 19 58 C19 41.17 19 24.34 19 7 C12.73 7 6.46 7 0 7 C0 4.69 0 2.38 0 0 Z " fill="#000000" transform="translate(154,227)"/>
<path d="M0 0 C2 1 2 1 3.3125 4.75 C3.56257813 5.55179688 3.81265625 6.35359375 4.0703125 7.1796875 C5.52341059 11.58782539 7.28575783 15.87242219 9.01171875 20.1796875 C10 23 10 23 10 26 C4.06 26 -1.88 26 -8 26 C-7.17863999 21.89319993 -6.23583201 19.00382492 -4.5625 15.25 C-2.39039234 10.17756362 -0.99350486 5.41911739 0 0 Z " fill="#EBB6B6" transform="translate(369,234)"/>
<path d="M0 0 C2 1 2 1 3.3125 4.75 C3.56257812 5.55179688 3.81265625 6.35359375 4.0703125 7.1796875 C5.52341059 11.58782539 7.28575783 15.87242219 9.01171875 20.1796875 C10 23 10 23 10 26 C4.06 26 -1.88 26 -8 26 C-7.17863999 21.89319993 -6.23583201 19.00382492 -4.5625 15.25 C-2.39039234 10.17756362 -0.99350486 5.41911739 0 0 Z " fill="#EBB6B6" transform="translate(220,234)"/>
<path d="M0 0 C2 1 2 1 3.3125 4.75 C3.56257812 5.55179688 3.81265625 6.35359375 4.0703125 7.1796875 C5.52341059 11.58782539 7.28575783 15.87242219 9.01171875 20.1796875 C10 23 10 23 10 26 C4.06 26 -1.88 26 -8 26 C-7.17863999 21.89319993 -6.23583201 19.00382492 -4.5625 15.25 C-2.39039234 10.17756362 -0.99350486 5.41911739 0 0 Z " fill="#EBB6B6" transform="translate(129,234)"/>
</svg>
